<svg xmlns="http://www.w3.org/2000/svg" viewBox="0 0 4248.000000 1230.000000" role="img" aria-label="Sidhu Lawyers">
<title>Sidhu Lawyers</title>
<g transform="translate(0.000000,1230.000000) scale(0.100000,-0.100000)"
fill="#ffffff" stroke="none">
<path d="M15402 10921 c-38 -13 -67 -33 -100 -69 -38 -40 -59 -53 -106 -67
-33 -9 -71 -15 -85 -12 -79 14 -186 48 -228 73 -109 62 -113 64 -263 74 -182
12 -362 12 -508 0 -129 -10 -170 -21 -227 -60 -34 -24 -69 -36 -208 -77 -10
-2 -33 -18 -51 -33 -18 -16 -62 -46 -99 -67 -37 -21 -100 -66 -141 -101 -85
-72 -220 -242 -251 -317 -11 -28 -35 -73 -52 -100 -46 -72 -54 -99 -63 -210
-5 -55 -16 -120 -24 -144 -23 -62 -20 -227 5 -396 33 -223 38 -241 71 -282 17
-21 46 -71 64 -111 76 -167 181 -280 345 -373 41 -24 93 -59 116 -80 24 -22
59 -42 85 -49 54 -13 101 -34 158 -70 25 -15 78 -38 119 -50 41 -12 102 -39
135 -60 34 -20 95 -47 136 -60 41 -12 101 -36 135 -52 33 -17 96 -44 139 -59
43 -16 110 -47 148 -69 38 -21 89 -49 115 -60 54 -24 157 -106 235 -187 52
-55 58 -67 99 -193 39 -121 44 -147 47 -250 3 -84 0 -126 -11 -155 -119 -325
-132 -344 -302 -471 -79 -60 -214 -98 -385 -110 -70 -5 -106 -1 -205 20 -170
37 -226 55 -260 80 -16 13 -59 38 -95 56 -36 17 -90 51 -120 75 -30 23 -70 50
-88 59 -18 9 -46 37 -61 61 -16 25 -43 59 -61 77 -18 18 -44 51 -57 73 -14 22
-42 60 -62 84 -64 77 -149 204 -181 271 -17 36 -49 87 -70 115 -21 27 -46 76
-56 109 -20 64 -77 137 -126 162 -42 22 -90 11 -122 -26 -25 -30 -25 -30 -20
-193 3 -89 12 -198 20 -243 10 -59 14 -175 14 -440 1 -369 8 -487 35 -527 22
-34 87 -67 130 -67 29 0 55 12 108 48 38 26 78 59 88 73 43 61 160 66 244 11
27 -18 65 -37 85 -42 90 -24 292 -74 355 -88 56 -13 136 -16 395 -17 287 0
332 2 385 18 33 10 70 25 82 33 12 7 57 23 99 35 94 26 293 126 359 180 26 21
63 48 84 59 20 12 47 37 60 56 14 20 44 49 68 65 24 17 51 42 60 57 9 15 31
43 49 62 38 42 140 212 173 290 31 72 36 88 73 265 29 135 32 168 32 325 1
163 -1 182 -27 275 -79 274 -99 311 -269 486 -129 131 -257 236 -324 264 -21
9 -74 37 -117 62 -43 25 -115 56 -160 69 -45 13 -105 40 -134 59 -33 22 -79
41 -121 50 -85 19 -100 26 -156 69 -32 24 -67 39 -119 51 -49 11 -90 28 -122
50 -26 19 -79 46 -119 61 -39 15 -99 48 -132 73 -34 25 -83 60 -110 76 -31 19
-65 54 -94 96 -25 36 -58 81 -73 99 -34 40 -45 66 -58 140 -6 30 -20 85 -31
122 l-21 66 27 119 c46 195 55 219 107 281 90 107 115 127 231 185 92 47 129
60 189 68 111 14 213 -2 318 -50 47 -22 102 -46 121 -54 19 -8 64 -36 100 -63
36 -28 82 -60 103 -73 20 -13 49 -38 63 -57 15 -18 42 -43 60 -55 19 -12 50
-44 68 -73 18 -28 43 -60 56 -71 12 -11 38 -44 57 -73 18 -29 51 -76 73 -103
22 -28 49 -71 60 -97 12 -26 30 -57 42 -69 11 -12 39 -59 62 -105 48 -96 80
-121 158 -122 43 -1 53 3 75 29 28 32 28 43 3 285 -5 52 -10 165 -10 250 0
183 -40 513 -82 687 -18 75 -67 96 -156 64z"/>
<path d="M18580 10812 c-77 -10 -127 -45 -115 -81 8 -27 60 -53 165 -84 47
-13 103 -32 124 -41 22 -9 84 -23 138 -30 104 -15 137 -29 165 -73 17 -26 18
-128 23 -1803 3 -976 1 -1790 -3 -1808 -10 -42 -72 -111 -114 -128 -17 -8
-106 -25 -197 -38 -91 -14 -179 -32 -195 -41 -45 -23 -81 -76 -81 -118 0 -71
-58 -67 1045 -68 930 -1 987 0 1005 16 39 35 14 142 -39 169 -33 17 -106 32
-251 51 -161 21 -205 37 -238 88 l-27 41 -3 1800 c-2 1277 0 1812 8 1839 15
51 40 64 145 71 100 7 138 17 305 75 114 41 140 58 140 93 0 21 -42 68 -62 69
-60 2 -1919 3 -1938 1z"/>
<path d="M23223 10809 c-73 -7 -113 -29 -113 -64 0 -32 24 -47 135 -83 50 -17
118 -42 153 -57 46 -19 91 -29 163 -34 84 -7 104 -12 122 -30 l22 -22 3 -1822
2 -1822 -22 -45 c-31 -60 -69 -77 -214 -95 -243 -30 -344 -77 -344 -157 0 -36
18 -59 55 -72 11 -4 552 -7 1201 -6 l1182 1 100 24 c56 13 127 33 160 44 32
11 103 27 158 37 111 18 145 30 206 72 24 16 76 37 116 47 53 13 87 28 121 55
27 21 70 46 96 54 62 22 82 32 130 70 22 18 58 42 79 55 105 60 361 308 435
420 13 20 42 55 63 79 22 24 50 68 63 97 13 29 44 82 67 117 37 53 46 76 56
143 8 49 20 90 32 105 62 78 72 108 91 257 10 80 28 178 39 217 15 51 24 121
30 246 9 158 8 182 -10 245 -10 39 -22 95 -25 125 -4 30 -12 66 -17 80 -5 14
-16 79 -24 145 -12 104 -18 126 -46 170 -49 79 -58 99 -70 167 -12 68 -36 126
-64 149 -9 8 -35 52 -56 99 -21 46 -54 102 -72 125 -18 22 -39 51 -46 65 -25
47 -397 393 -455 423 -16 8 -47 29 -69 46 -61 49 -269 145 -421 195 -250 81
-339 106 -415 117 -47 7 -383 12 -890 15 -448 2 -1002 5 -1230 7 -228 1 -443
-1 -477 -4z m1947 -262 c83 -9 183 -26 234 -41 48 -14 97 -26 107 -26 37 0
215 -63 279 -98 36 -20 88 -47 115 -60 28 -13 71 -44 97 -68 26 -24 52 -44 58
-44 16 0 149 -138 167 -174 8 -17 31 -47 49 -67 35 -36 136 -232 180 -346 13
-34 28 -93 34 -130 6 -37 26 -113 45 -169 50 -147 58 -253 52 -745 -4 -372 -6
-423 -25 -504 -11 -49 -29 -113 -41 -141 -11 -29 -27 -87 -35 -130 -8 -44 -29
-119 -46 -167 -39 -110 -132 -292 -169 -332 -16 -16 -36 -44 -45 -61 -17 -35
-108 -121 -171 -162 -22 -15 -55 -39 -74 -55 -18 -16 -68 -45 -110 -66 -42
-20 -99 -52 -127 -70 -47 -30 -68 -35 -255 -63 -177 -26 -241 -31 -485 -35
l-281 -5 -35 31 c-24 21 -39 46 -47 75 -15 61 -16 3544 0 3599 7 25 21 45 42
58 29 18 45 20 187 16 85 -3 220 -12 300 -20z"/>
<path d="M30190 10810 c-63 -6 -96 -22 -105 -49 -14 -45 15 -66 136 -100 42
-12 104 -33 139 -47 36 -14 102 -30 154 -36 50 -6 104 -17 119 -25 60 -30 57
80 57 -1873 l1 -1792 -23 -45 c-37 -74 -69 -87 -288 -117 -136 -19 -201 -40
-238 -75 -53 -48 -55 -117 -6 -140 36 -16 1955 -18 1997 -2 54 21 53 95 -3
142 -39 33 -145 65 -282 84 -117 16 -163 31 -191 63 -46 51 -46 51 -46 897 0
443 4 817 9 839 5 21 17 48 28 58 18 19 45 19 933 19 881 0 914 -1 939 -19 14
-11 30 -37 37 -58 8 -28 12 -257 12 -840 l1 -800 -27 -53 c-33 -67 -69 -85
-219 -106 -60 -9 -139 -25 -177 -36 -58 -17 -72 -26 -98 -61 -36 -51 -36 -92
1 -120 25 -18 60 -19 986 -19 627 0 969 3 987 10 50 19 48 93 -5 142 -38 37
-101 55 -266 79 -185 28 -218 45 -248 127 -20 58 -21 3621 0 3662 18 34 54 51
110 51 70 0 151 19 254 59 53 21 118 46 145 55 51 19 72 45 62 77 -16 50 -7
50 -1033 51 l-958 1 -42 -22 c-77 -39 -50 -87 73 -127 28 -9 80 -30 118 -46
44 -19 98 -32 155 -39 108 -12 138 -23 160 -63 15 -28 17 -95 20 -750 2 -619
0 -726 -13 -771 -27 -93 58 -86 -970 -86 -603 0 -911 3 -924 10 -45 25 -46 33
-49 811 -2 512 0 746 8 772 13 47 50 68 117 68 58 0 149 22 203 50 21 11 78
31 126 45 95 28 124 46 124 80 0 29 -27 52 -72 60 -43 8 -1847 12 -1928 5z"/>
<path d="M37550 10812 c-14 -1 -44 -10 -68 -18 -45 -17 -64 -52 -42 -79 11
-13 99 -45 165 -60 17 -4 61 -20 99 -37 44 -19 104 -35 169 -44 117 -16 155
-35 182 -89 20 -39 20 -66 26 -1440 6 -1542 7 -1584 63 -1680 15 -24 30 -47
35 -50 10 -5 31 -67 51 -143 7 -26 27 -61 49 -85 21 -23 47 -62 58 -87 11 -25
37 -64 57 -87 47 -54 201 -185 242 -206 18 -9 45 -27 61 -41 16 -14 88 -55
159 -91 100 -52 153 -72 234 -91 58 -13 134 -33 170 -45 91 -29 239 -39 575
-39 328 0 421 8 550 49 50 16 124 39 165 51 41 12 100 36 130 54 30 19 75 42
100 53 104 46 381 278 438 367 14 23 41 60 59 83 18 23 42 62 53 88 11 26 34
66 51 90 29 40 59 126 119 340 39 139 40 203 40 1528 -1 1189 0 1290 16 1323
35 74 101 120 214 149 74 19 103 33 183 87 93 63 97 102 17 136 -30 12 -120
14 -590 13 -354 -1 -567 -5 -588 -12 -57 -19 -70 -74 -24 -109 93 -73 152
-104 232 -124 109 -28 194 -93 219 -165 8 -25 11 -373 11 -1261 0 -1458 0
-1459 -80 -1630 -26 -58 -51 -120 -55 -138 -4 -17 -26 -56 -49 -85 -23 -28
-56 -73 -74 -98 -51 -76 -179 -188 -252 -221 -36 -17 -82 -46 -103 -65 -21
-18 -49 -38 -62 -43 -54 -21 -294 -32 -559 -27 -306 6 -357 14 -439 70 -29 20
-77 45 -107 56 -70 27 -227 162 -266 229 -14 26 -44 68 -65 94 -44 52 -56 80
-70 155 -5 28 -25 98 -43 155 -19 57 -39 137 -45 178 -9 55 -11 427 -9 1392
l3 1317 21 28 c30 40 57 51 175 67 65 9 138 28 194 49 50 19 109 41 132 47 60
18 90 52 77 88 -20 56 14 54 -1022 56 -527 0 -968 0 -982 -2z"/>
<path d="M4744 10675 c-110 -24 -158 -63 -156 -127 1 -45 26 -63 122 -92 47
-14 96 -33 108 -42 34 -23 25 -55 -22 -78 -34 -16 -60 -19 -207 -17 -258 2
-480 -21 -622 -64 -64 -19 -163 -42 -219 -50 -124 -19 -151 -27 -248 -75 -41
-21 -93 -43 -115 -50 -107 -34 -158 -80 -153 -139 3 -34 5 -36 41 -39 23 -2
69 7 113 22 111 39 234 33 251 -10 9 -23 -26 -50 -94 -71 -42 -13 -65 -28 -91
-60 -25 -29 -52 -48 -93 -63 -32 -12 -75 -37 -96 -55 -21 -18 -72 -49 -113
-70 -87 -44 -227 -136 -294 -194 -26 -23 -57 -46 -69 -52 -21 -10 -45 -32
-177 -162 -30 -30 -68 -61 -83 -69 -29 -14 -238 -206 -287 -262 -14 -16 -46
-51 -73 -78 -26 -27 -54 -63 -63 -81 -9 -17 -40 -55 -68 -83 -84 -86 -149
-162 -172 -205 -13 -21 -43 -65 -68 -98 -25 -32 -53 -76 -63 -97 -10 -21 -35
-65 -56 -97 -21 -32 -47 -83 -57 -113 -11 -30 -37 -76 -59 -102 -31 -36 -44
-65 -59 -127 -13 -51 -33 -99 -55 -133 -25 -36 -41 -76 -52 -129 -9 -43 -33
-132 -54 -198 -51 -156 -64 -241 -65 -400 -1 -172 23 -244 72 -214 40 25 115
202 147 344 21 95 36 128 80 170 32 29 45 62 60 148 11 69 80 104 106 56 13
-25 -18 -173 -56 -267 -28 -70 -50 -186 -65 -342 -15 -165 -27 -223 -65 -314
-38 -92 -55 -173 -55 -258 0 -70 -22 -221 -55 -378 -21 -101 -24 -147 -27
-380 -3 -249 -2 -269 19 -335 25 -81 49 -238 63 -410 9 -116 12 -124 60 -220
40 -79 53 -120 65 -195 11 -63 25 -112 44 -145 15 -27 40 -82 55 -122 15 -39
46 -97 68 -130 23 -32 56 -84 75 -115 18 -31 45 -66 60 -78 15 -11 40 -41 57
-67 36 -54 68 -70 92 -46 21 22 14 108 -17 190 -62 169 -85 241 -121 378 -21
83 -45 175 -53 205 -20 75 -19 123 3 151 27 32 49 19 79 -48 14 -32 46 -79 69
-105 24 -26 55 -72 69 -104 14 -31 38 -72 55 -90 17 -19 41 -56 54 -82 13 -26
47 -74 75 -107 29 -33 82 -96 119 -139 37 -44 84 -95 105 -115 76 -73 204
-200 277 -276 41 -42 95 -91 120 -108 25 -17 73 -54 106 -82 107 -87 179 -142
211 -159 17 -8 53 -34 78 -56 26 -23 75 -55 109 -72 33 -16 81 -45 106 -62 25
-18 77 -45 117 -60 39 -15 91 -42 115 -60 24 -18 72 -43 108 -56 36 -12 90
-39 120 -60 30 -20 85 -47 122 -59 37 -11 96 -37 130 -56 35 -19 102 -46 150
-59 47 -14 105 -35 129 -48 50 -26 160 -57 469 -134 250 -62 364 -73 415 -40
52 34 28 60 -75 82 -83 17 -115 32 -149 68 -14 15 -56 36 -104 52 -44 15 -110
44 -147 65 -36 21 -108 54 -159 73 -50 19 -106 45 -124 59 -18 14 -64 39 -101
56 -37 17 -89 48 -114 69 -26 22 -69 49 -96 61 -27 12 -71 40 -98 64 -84 74
-131 113 -193 160 -86 65 -232 219 -296 312 -31 44 -86 142 -123 219 -62 128
-69 149 -92 277 -20 116 -24 173 -24 333 0 106 5 218 10 247 6 30 17 102 25
160 8 64 24 131 39 167 14 34 43 115 65 180 21 65 54 149 73 187 19 39 45 102
57 142 24 82 63 136 95 131 44 -6 47 -36 37 -340 -6 -162 -6 -362 -1 -469 7
-164 11 -194 35 -260 15 -41 44 -127 65 -191 44 -133 59 -165 107 -228 18 -25
48 -66 66 -92 63 -92 117 -155 240 -278 157 -156 220 -211 277 -240 25 -13 69
-43 99 -67 30 -25 76 -55 103 -69 26 -13 62 -37 80 -53 18 -15 52 -38 76 -50
24 -12 71 -41 105 -64 34 -24 89 -53 122 -67 33 -13 88 -41 122 -62 34 -22 88
-49 121 -62 32 -13 83 -40 113 -60 30 -20 80 -43 111 -52 37 -11 74 -31 106
-58 27 -23 76 -52 109 -64 32 -12 77 -37 98 -55 22 -19 59 -44 82 -56 23 -11
57 -34 75 -50 18 -16 65 -49 103 -74 39 -24 79 -55 90 -67 11 -12 39 -33 62
-47 23 -13 57 -43 76 -67 27 -32 54 -50 111 -74 l76 -32 337 0 c205 0 354 5
378 11 22 6 114 14 205 19 99 5 187 14 221 24 53 16 58 16 124 -5 54 -16 78
-30 110 -64 22 -24 59 -55 83 -69 23 -14 42 -30 42 -34 0 -5 21 -26 48 -48 50
-41 158 -156 257 -275 33 -39 78 -90 99 -113 22 -22 51 -57 65 -77 28 -38 88
-110 162 -192 25 -29 60 -72 76 -97 17 -25 45 -58 63 -75 18 -16 45 -49 61
-72 37 -53 63 -62 93 -33 47 43 56 102 56 360 0 150 -4 249 -11 267 -6 15 -17
93 -24 172 -13 136 -16 148 -53 220 -22 42 -45 103 -52 136 -18 94 -29 125
-70 195 -21 36 -50 97 -64 136 -15 39 -40 92 -56 118 -17 26 -43 73 -59 104
-16 31 -49 82 -73 113 -23 31 -55 76 -70 100 -31 50 -80 115 -131 174 -18 22
-52 65 -75 96 -122 168 -581 629 -752 756 -30 22 -64 50 -74 62 -11 12 -43 35
-71 51 -28 16 -62 41 -75 55 -14 15 -53 40 -87 55 -34 16 -77 40 -96 54 -19
14 -85 42 -148 62 -63 19 -152 53 -199 74 -47 22 -117 49 -157 60 -44 13 -91
35 -119 57 -26 19 -70 45 -98 56 -28 12 -78 40 -111 63 -33 23 -79 51 -102 63
-22 11 -62 38 -87 60 -25 22 -58 47 -73 56 -16 9 -43 37 -61 63 -18 26 -47 66
-65 89 -17 23 -47 65 -65 95 -19 29 -49 75 -68 102 -19 27 -44 81 -56 120 -12
39 -34 92 -50 117 -21 35 -32 72 -44 150 -8 57 -19 120 -24 139 -16 65 -40
220 -40 263 0 23 11 78 25 122 14 44 29 120 35 168 12 104 25 137 73 195 20
24 42 62 48 85 18 70 39 104 79 131 31 20 42 37 60 91 12 36 30 70 40 75 77
41 67 -102 -11 -170 -23 -20 -32 -40 -43 -100 -18 -94 -26 -116 -64 -163 -39
-49 -45 -108 -45 -437 0 -290 8 -352 58 -424 19 -28 44 -80 56 -114 13 -39 34
-77 55 -97 18 -18 44 -56 59 -85 66 -131 336 -380 539 -497 26 -15 82 -50 124
-76 41 -27 110 -61 152 -76 42 -15 97 -43 121 -63 24 -20 67 -43 96 -51 66
-20 90 -32 135 -73 21 -19 50 -36 65 -40 66 -14 95 -28 139 -64 26 -21 74 -48
108 -60 33 -12 84 -37 112 -56 28 -18 85 -49 125 -67 41 -19 98 -51 128 -71
29 -20 77 -43 107 -52 34 -10 73 -32 105 -59 27 -23 75 -52 106 -64 32 -12 76
-38 100 -57 23 -19 64 -44 90 -56 26 -11 66 -35 89 -54 23 -18 76 -51 119 -74
43 -23 98 -55 122 -71 24 -17 65 -40 91 -51 26 -11 65 -38 88 -58 23 -21 62
-47 88 -58 26 -12 66 -37 89 -56 59 -48 89 -57 184 -58 90 0 83 -3 212 85 98
65 107 82 91 157 -16 75 -8 152 26 233 13 34 33 102 44 150 12 57 34 114 59
160 22 40 47 104 57 142 9 39 33 99 52 135 44 82 40 114 -15 137 -44 18 -97
12 -155 -18 -84 -43 -194 -65 -253 -50 -60 14 -218 86 -278 126 -28 19 -78 43
-110 54 -32 11 -77 36 -101 56 -24 20 -72 47 -106 60 -34 13 -69 30 -76 36
-29 24 -134 193 -145 233 -7 23 -34 90 -62 149 l-49 108 -6 128 c-6 155 5 207
62 296 22 36 50 79 61 97 18 29 137 107 235 155 52 26 273 31 344 8 87 -28
319 -148 362 -187 23 -21 58 -45 79 -54 21 -8 55 -29 76 -46 33 -27 43 -29 81
-24 24 4 76 9 116 12 67 6 75 4 98 -17 14 -13 33 -52 44 -88 11 -36 31 -91 44
-121 35 -79 56 -194 56 -305 0 -88 2 -98 25 -120 45 -46 79 -35 159 48 93 95
178 202 206 258 13 24 38 67 56 96 18 28 42 84 54 125 12 40 41 103 65 140 48
76 49 84 61 333 l7 140 49 50 c27 27 56 61 63 75 7 14 30 41 51 60 49 46 134
219 134 275 0 35 -7 45 -58 95 -48 47 -73 62 -145 88 -47 17 -111 48 -140 67
-30 20 -82 44 -115 54 -38 12 -79 34 -110 60 -28 24 -74 50 -110 62 -34 11
-76 32 -94 45 -18 13 -62 38 -98 54 -36 17 -85 42 -110 56 -25 14 -70 37 -100
50 -30 14 -116 54 -190 89 -74 34 -155 68 -179 75 -25 6 -66 29 -91 51 -27 23
-73 48 -111 60 -35 12 -86 38 -114 59 -27 20 -66 47 -87 59 -35 21 -96 83
-208 210 -30 35 -80 91 -111 125 -30 33 -66 77 -79 96 -36 53 -85 111 -201
238 -115 127 -138 164 -168 268 -10 38 -30 94 -44 124 -14 30 -33 98 -41 150
-13 83 -25 114 -85 233 -38 75 -89 162 -113 194 -24 32 -55 76 -69 98 -33 51
-254 277 -294 299 -17 10 -40 33 -53 52 -12 19 -48 51 -78 70 -31 20 -73 50
-93 68 -65 58 -201 157 -234 171 -18 7 -57 30 -86 49 -71 48 -344 182 -401
196 -49 13 -95 37 -149 76 -19 13 -62 33 -97 44 -34 10 -93 39 -131 64 -52 34
-86 48 -145 60 -43 8 -99 26 -126 40 -54 27 -123 47 -227 66 -38 7 -100 24
-137 36 -37 13 -111 31 -165 40 -54 9 -141 25 -193 37 -85 19 -131 21 -440 24
-263 2 -360 -1 -406 -12z m3197 -2875 c9 0 40 -18 68 -41 28 -22 86 -54 128
-71 43 -16 93 -38 113 -49 19 -10 112 -44 205 -75 129 -42 180 -64 213 -91 47
-39 54 -63 18 -63 -13 0 -48 -11 -79 -25 -33 -15 -89 -30 -139 -35 -45 -6
-137 -16 -203 -24 -81 -10 -136 -22 -167 -37 -82 -40 -106 -9 -118 154 -10
135 -23 171 -84 230 -38 36 -46 50 -46 80 0 40 21 60 55 52 11 -3 27 -5 36 -5z
m-3084 -1602 c4 -13 7 -162 5 -333 -2 -170 1 -361 7 -423 8 -104 13 -121 55
-210 25 -53 53 -131 61 -172 11 -56 25 -89 55 -132 22 -31 49 -81 60 -110 11
-30 40 -78 65 -107 24 -28 52 -64 61 -80 9 -15 35 -40 58 -56 22 -15 53 -45
68 -66 15 -21 38 -45 52 -55 14 -9 72 -61 128 -116 57 -54 128 -113 158 -130
30 -18 78 -49 105 -69 28 -21 79 -51 115 -67 36 -16 89 -46 118 -66 29 -19 70
-40 90 -46 20 -5 49 -18 63 -27 99 -68 125 -83 171 -98 28 -9 70 -32 92 -50
23 -19 71 -44 107 -58 36 -13 97 -43 135 -66 119 -74 264 -152 328 -178 33
-14 81 -42 106 -62 25 -21 66 -47 93 -59 113 -50 462 -396 532 -529 14 -25 40
-61 59 -79 39 -38 51 -79 61 -221 8 -105 1 -123 -47 -123 -29 0 -37 7 -109 86
-41 47 -139 119 -209 154 -36 18 -79 44 -97 57 -18 14 -65 37 -105 52 -40 15
-95 43 -123 63 -27 19 -72 43 -100 52 -27 9 -79 34 -115 56 -36 22 -81 45
-100 51 -19 6 -82 33 -140 59 -58 27 -159 70 -225 96 -66 25 -140 56 -165 69
-25 12 -78 33 -118 44 -40 12 -100 39 -133 61 -39 25 -84 44 -134 55 -54 12
-88 26 -122 52 -26 20 -72 47 -102 60 -31 14 -78 41 -106 62 -27 20 -74 47
-103 58 -29 12 -74 40 -100 61 -26 22 -63 48 -82 57 -19 10 -62 37 -95 60 -33
23 -78 52 -101 63 -22 11 -47 28 -55 38 -8 9 -50 48 -95 85 -85 71 -206 214
-243 287 -12 24 -38 61 -57 82 -20 22 -49 72 -65 111 -16 39 -43 87 -60 106
-42 48 -49 70 -60 197 -5 61 -16 143 -23 181 -26 125 -26 140 -11 226 8 46 21
156 30 244 19 193 19 192 63 280 19 38 43 101 54 140 11 38 34 97 53 131 19
33 48 98 64 144 17 46 41 94 53 107 28 30 64 30 75 1z"/>
<path d="M18824 5260 c-19 -7 -54 -64 -54 -87 0 -5 -20 -38 -45 -73 -24 -35
-52 -88 -60 -119 -9 -31 -34 -85 -55 -121 -22 -36 -49 -96 -60 -135 -12 -38
-37 -101 -57 -139 -19 -38 -57 -125 -84 -194 -28 -68 -58 -141 -68 -161 -10
-20 -29 -73 -41 -118 -12 -46 -39 -111 -60 -146 -22 -35 -48 -98 -58 -141 -11
-42 -27 -87 -36 -99 -54 -74 -67 -99 -81 -157 -9 -36 -34 -94 -54 -130 -21
-36 -49 -96 -61 -135 -13 -38 -36 -90 -51 -115 -15 -25 -46 -99 -69 -165 -23
-66 -57 -149 -75 -185 -18 -36 -43 -99 -55 -140 -12 -41 -39 -105 -61 -142
-22 -37 -48 -100 -58 -141 -21 -83 -27 -97 -69 -150 -17 -20 -40 -70 -52 -110
-12 -39 -37 -97 -55 -127 -18 -30 -43 -86 -55 -125 -12 -38 -41 -106 -64 -150
-23 -44 -55 -114 -70 -155 -15 -41 -42 -97 -60 -125 -18 -27 -41 -72 -51 -98
-21 -57 -121 -162 -173 -184 -19 -8 -60 -32 -92 -53 -31 -22 -62 -40 -67 -40
-21 0 -93 -61 -93 -79 0 -25 27 -47 75 -60 56 -15 1070 -15 1130 0 24 6 51 19
60 29 39 43 -5 79 -124 104 -101 21 -222 99 -245 157 -22 54 -20 166 4 290 15
80 28 116 59 168 25 42 48 98 62 154 14 59 35 108 60 148 22 33 46 89 55 125
23 88 49 124 109 149 48 19 74 20 749 23 481 2 716 -1 753 -8 36 -8 63 -21 83
-42 40 -39 92 -143 120 -238 12 -41 39 -106 60 -145 21 -38 45 -97 55 -130 9
-33 31 -85 49 -115 56 -92 57 -98 66 -220 10 -147 3 -184 -48 -231 -39 -37
-134 -79 -177 -79 -93 0 -173 -46 -162 -92 14 -54 -8 -53 784 -56 800 -3 795
-3 809 52 9 38 -19 74 -79 102 -66 31 -201 115 -231 143 -13 12 -36 45 -51 74
-15 29 -45 75 -65 102 -21 28 -48 82 -60 120 -13 39 -38 91 -57 118 -21 28
-48 89 -68 150 -34 104 -98 258 -185 447 -27 58 -56 130 -66 160 -9 30 -32 77
-49 105 -18 28 -42 83 -54 122 -14 48 -34 87 -61 119 -31 37 -43 64 -56 121
-10 47 -29 94 -53 131 -40 62 -54 94 -72 162 -6 25 -29 83 -51 130 -22 47 -59
132 -83 190 -23 58 -56 132 -72 165 -17 33 -38 85 -47 114 -9 30 -34 85 -56
121 -22 36 -47 88 -55 116 -8 27 -26 65 -40 84 -42 55 -64 104 -81 176 -8 37
-33 99 -54 139 -22 39 -48 96 -59 126 -10 30 -41 104 -68 164 -28 61 -60 140
-73 178 -12 37 -37 89 -56 117 -18 27 -42 80 -53 118 -26 95 -36 111 -84 133
-45 20 -70 22 -103 9z m-64 -1112 c10 -24 21 -61 24 -83 4 -22 18 -58 31 -80
49 -82 63 -111 75 -165 16 -71 135 -366 200 -495 28 -55 55 -122 62 -150 12
-56 29 -92 68 -150 15 -22 35 -73 45 -114 14 -59 26 -83 61 -123 37 -40 44
-56 44 -89 0 -32 -7 -47 -30 -70 l-30 -30 -587 3 c-544 3 -590 4 -621 21 -38
21 -56 58 -46 100 3 15 28 77 55 135 26 59 55 138 64 176 17 74 29 101 74 168
15 24 38 74 50 113 13 38 40 99 61 135 21 36 48 98 60 139 12 40 31 90 44 110
26 44 49 97 71 171 10 30 32 80 50 111 18 31 40 80 50 110 34 106 92 132 125
57z"/>
<path d="M39879 5260 c-25 -4 -74 -22 -110 -40 -35 -18 -95 -43 -132 -56 -38
-13 -84 -37 -103 -53 -19 -17 -58 -46 -86 -64 -29 -19 -100 -81 -158 -138
-128 -128 -176 -205 -236 -383 -37 -113 -45 -150 -54 -268 -20 -255 29 -490
134 -633 12 -16 34 -51 49 -76 14 -25 38 -54 52 -63 14 -9 37 -34 51 -56 15
-22 49 -52 78 -69 28 -16 60 -43 71 -59 10 -17 37 -41 60 -53 22 -12 60 -40
85 -62 25 -21 65 -51 90 -65 25 -14 66 -41 91 -58 26 -18 71 -45 100 -59 30
-15 83 -49 119 -75 36 -26 75 -51 87 -54 12 -4 50 -28 85 -54 36 -26 84 -56
109 -67 24 -10 63 -34 86 -52 23 -19 62 -42 85 -53 24 -10 59 -35 78 -55 19
-21 58 -52 86 -70 115 -74 323 -288 373 -382 6 -13 21 -97 32 -189 l21 -166
-22 -104 c-11 -57 -27 -120 -33 -140 -23 -64 -128 -185 -241 -275 -48 -38 -82
-54 -200 -94 -130 -42 -152 -47 -242 -48 -84 0 -109 3 -164 25 -36 14 -107 33
-158 43 -67 13 -108 27 -150 52 -31 19 -79 46 -107 60 -27 14 -72 44 -100 67
-27 23 -71 57 -98 75 -26 18 -55 44 -64 59 -9 15 -41 55 -70 89 -61 71 -175
251 -202 322 -11 26 -33 71 -51 101 -17 29 -43 82 -57 117 -28 69 -55 97 -115
115 -55 16 -90 2 -105 -42 -16 -46 -7 -159 22 -275 37 -146 56 -261 65 -405
13 -200 43 -421 72 -532 16 -64 27 -84 56 -109 29 -26 41 -30 70 -25 45 7 68
29 102 96 51 101 102 127 218 110 46 -6 75 -17 110 -43 54 -38 88 -51 182 -67
36 -7 119 -32 185 -57 118 -44 123 -45 290 -54 192 -11 456 2 521 25 22 7 63
25 90 39 27 13 85 34 129 46 64 18 88 30 121 62 22 22 64 48 93 59 47 18 119
67 222 149 61 50 175 211 220 312 86 194 83 178 87 449 5 313 -1 353 -81 534
-52 118 -71 150 -126 210 -107 118 -213 220 -266 256 -27 19 -72 53 -100 76
-27 23 -63 48 -80 57 -16 8 -48 29 -70 47 -22 18 -67 46 -100 62 -33 17 -79
46 -102 65 -23 18 -68 45 -99 59 -32 14 -77 43 -101 64 -24 21 -65 48 -91 60
-26 12 -69 39 -97 60 -27 21 -66 46 -85 55 -19 10 -51 30 -70 45 -19 15 -66
45 -105 65 -38 21 -81 48 -95 60 -14 12 -47 37 -75 55 -109 73 -266 253 -290
334 -21 68 -47 285 -40 330 4 22 16 76 27 119 19 72 26 84 82 140 100 100 184
166 224 176 133 34 322 37 513 8 101 -15 122 -23 179 -67 19 -14 69 -43 110
-63 131 -65 301 -201 337 -272 9 -16 38 -53 64 -82 27 -28 49 -57 49 -63 0 -6
22 -66 48 -133 26 -67 59 -158 72 -201 29 -92 67 -141 120 -151 111 -21 139
65 105 315 -8 58 -15 149 -15 203 0 54 -11 166 -24 250 -13 84 -34 233 -46
332 -13 107 -28 194 -38 215 -16 32 -21 35 -67 38 -69 3 -105 -21 -147 -100
-43 -81 -77 -100 -169 -96 -55 3 -76 10 -135 45 -45 27 -92 46 -134 53 -113
22 -163 37 -250 76 l-85 39 -260 2 c-143 1 -281 -2 -306 -7z"/>
<path d="M12975 5163 c-32 -8 -55 -34 -55 -63 0 -44 30 -62 120 -71 64 -6 94
-15 143 -42 34 -19 86 -42 115 -52 64 -21 89 -49 143 -167 31 -67 42 -106 50
-175 6 -55 8 -645 6 -1588 -3 -1646 1 -1534 -67 -1680 -42 -90 -67 -117 -125
-135 -22 -7 -74 -30 -116 -51 -44 -22 -106 -43 -145 -50 -94 -16 -124 -32
-124 -68 0 -16 9 -36 21 -47 21 -18 64 -19 1612 -22 875 -1 1637 2 1694 6 118
10 133 19 159 91 9 25 30 76 46 113 19 44 35 112 48 200 17 115 26 145 64 223
34 68 48 113 61 188 10 65 25 115 43 146 22 41 25 54 17 77 -20 55 -105 91
-155 64 -29 -16 -118 -133 -140 -186 -12 -27 -40 -69 -64 -94 -24 -25 -55 -65
-69 -90 -47 -81 -203 -229 -307 -292 -124 -74 -131 -77 -289 -93 -172 -18
-312 -41 -375 -60 -41 -12 -123 -15 -468 -15 -392 0 -422 1 -475 20 -69 24
-117 68 -140 129 -17 43 -18 143 -18 1661 l0 1615 27 99 c16 57 37 109 49 122
12 12 47 33 78 45 31 12 85 38 121 56 41 21 91 38 133 43 160 23 212 82 113
130 -42 20 -55 20 -877 19 -459 -1 -843 -4 -854 -6z"/>
<path d="M20613 5160 c-12 -5 -29 -20 -38 -34 -25 -38 0 -77 67 -106 29 -12
67 -32 83 -45 17 -12 45 -30 64 -39 55 -29 121 -97 151 -156 15 -30 40 -66 55
-80 36 -33 45 -52 66 -133 9 -37 35 -98 57 -135 26 -44 46 -94 57 -146 9 -44
41 -137 71 -208 30 -70 64 -163 75 -205 12 -43 34 -103 50 -134 15 -31 39 -96
53 -145 30 -106 49 -154 81 -203 13 -20 33 -74 44 -119 13 -59 30 -100 56
-137 30 -44 39 -69 51 -147 10 -65 26 -117 53 -173 21 -44 60 -152 86 -239 26
-87 62 -194 80 -236 18 -42 43 -113 55 -156 12 -43 35 -102 51 -131 17 -29 36
-84 44 -125 17 -89 20 -98 61 -168 18 -31 42 -94 54 -140 12 -48 36 -109 55
-141 32 -51 40 -77 79 -234 8 -33 30 -98 49 -145 19 -47 42 -107 52 -134 27
-75 46 -89 112 -84 69 6 83 21 121 128 16 47 52 150 80 229 28 80 56 170 63
200 6 31 28 88 49 128 22 40 46 105 55 150 11 48 34 110 61 161 26 48 51 112
59 154 9 41 32 101 54 142 22 39 47 103 57 141 9 39 26 90 37 115 11 25 45
122 77 215 32 94 72 205 89 248 17 43 40 121 52 175 15 72 30 113 58 157 21
33 50 81 64 106 34 60 51 66 86 31 22 -21 33 -50 50 -121 12 -51 38 -130 60
-175 21 -44 46 -112 55 -151 9 -38 34 -99 56 -135 21 -36 43 -90 50 -120 15
-72 28 -104 66 -168 18 -30 40 -86 49 -130 10 -42 34 -111 55 -152 20 -41 50
-120 65 -175 16 -55 49 -152 73 -215 24 -63 59 -160 76 -215 18 -55 45 -119
60 -143 15 -23 34 -75 43 -115 17 -76 29 -105 67 -162 14 -20 32 -68 41 -108
22 -97 40 -132 90 -172 86 -71 126 -54 163 71 12 39 30 82 40 95 32 40 48 80
65 156 9 40 27 94 41 120 13 27 39 98 56 158 18 61 43 139 57 175 41 106 92
269 104 334 7 34 30 96 54 141 32 60 46 100 55 160 12 79 30 125 76 195 13 19
31 71 40 115 11 54 28 101 54 145 25 42 43 88 50 130 6 36 26 99 45 140 18 41
63 167 99 280 37 113 75 225 85 250 11 25 27 83 36 130 11 56 30 109 55 155
22 41 47 109 60 160 12 54 37 119 61 163 26 48 45 100 55 149 9 49 28 101 53
147 22 39 47 100 56 136 20 75 31 100 92 189 63 92 69 98 143 136 36 18 94 48
128 66 57 29 73 33 150 33 93 1 91 2 260 -88 64 -34 165 -124 224 -199 18 -23
46 -56 63 -73 58 -61 137 -160 168 -211 43 -71 112 -164 168 -226 26 -29 55
-72 66 -97 11 -25 57 -97 103 -160 46 -63 92 -128 103 -145 103 -164 180 -278
215 -318 23 -26 49 -63 58 -82 9 -19 35 -50 59 -70 30 -24 48 -49 59 -83 9
-26 37 -80 64 -119 26 -40 59 -91 75 -115 15 -24 43 -64 62 -91 18 -26 44 -73
57 -105 22 -57 23 -59 26 -637 4 -591 -3 -747 -34 -870 -26 -101 -31 -106
-169 -174 -113 -55 -135 -63 -229 -75 -109 -14 -152 -29 -170 -59 -14 -22 1
-47 40 -67 25 -13 150 -15 939 -15 501 0 922 3 937 8 38 10 63 49 49 76 -14
25 -53 37 -182 55 -97 14 -177 36 -205 58 -6 4 -42 19 -80 33 -67 24 -114 61
-114 90 0 8 -11 40 -25 72 -51 115 -55 173 -55 848 l0 622 56 109 c31 60 74
132 95 160 20 28 45 68 54 89 8 21 38 62 65 91 28 29 50 57 50 62 0 5 23 40
51 78 28 38 62 91 76 117 13 27 39 69 57 95 19 26 47 74 64 107 17 33 46 76
65 97 20 20 44 57 56 82 11 25 39 70 63 100 41 51 112 158 168 251 28 46 101
147 173 239 26 33 55 74 65 90 9 17 35 50 57 75 23 25 53 65 68 88 15 24 46
55 70 69 23 15 56 38 72 52 17 14 57 37 90 52 33 15 86 43 117 62 132 81 290
73 518 -27 67 -29 97 -49 142 -95 31 -33 62 -76 69 -97 16 -46 25 -3003 11
-3253 -10 -173 -17 -196 -82 -259 -50 -48 -208 -125 -311 -151 -83 -20 -139
-51 -139 -76 0 -23 36 -52 79 -64 27 -7 538 -9 1673 -8 1498 3 1635 4 1663 20
74 40 100 94 114 236 9 89 17 114 55 195 36 73 47 110 56 182 8 63 22 116 48
175 36 86 51 172 38 225 -12 48 -103 81 -161 59 -32 -13 -133 -162 -156 -231
-15 -46 -35 -82 -64 -113 -23 -25 -50 -59 -59 -77 -9 -18 -28 -40 -43 -50 -14
-10 -53 -44 -86 -75 -33 -32 -64 -58 -69 -58 -5 0 -46 -22 -91 -48 -104 -62
-128 -69 -268 -87 -63 -8 -161 -27 -219 -42 l-105 -28 -455 0 -455 0 -89 29
c-52 17 -103 41 -120 57 l-31 27 -3 789 c-2 801 -1 824 34 854 18 15 1037 13
1134 -2 93 -14 183 -46 225 -79 19 -15 62 -60 95 -99 48 -57 60 -79 65 -118
21 -160 35 -197 87 -236 65 -48 107 -46 136 6 16 29 17 87 20 687 2 610 1 657
-15 689 -35 68 -86 71 -156 9 -39 -34 -42 -45 -77 -220 -6 -31 -22 -72 -35
-90 -13 -18 -40 -57 -60 -86 -20 -29 -46 -59 -58 -66 -12 -8 -76 -25 -142 -37
-113 -21 -151 -23 -651 -27 l-532 -4 -33 30 -34 30 0 709 c0 696 0 709 20 743
13 22 34 39 55 47 26 9 193 12 615 12 633 1 561 6 860 -59 169 -37 195 -59
293 -242 43 -82 68 -142 82 -203 11 -48 25 -96 31 -106 16 -31 70 -59 112 -59
49 0 74 26 83 87 11 71 -4 780 -16 803 -6 11 -23 28 -37 38 -26 16 -156 17
-2383 17 -2074 0 -2358 -2 -2384 -15 -39 -20 -54 -45 -40 -67 19 -31 67 -47
164 -53 106 -8 122 -14 193 -74 66 -55 81 -86 73 -149 -10 -70 -27 -116 -74
-194 -22 -38 -45 -85 -52 -105 -6 -22 -28 -52 -51 -71 -21 -19 -51 -56 -67
-84 -15 -27 -46 -76 -70 -109 -24 -32 -77 -113 -119 -179 -42 -66 -93 -140
-113 -165 -21 -25 -50 -70 -65 -100 -15 -30 -40 -70 -56 -90 -15 -19 -42 -65
-58 -102 -17 -37 -44 -82 -60 -100 -15 -18 -40 -57 -55 -86 -39 -77 -95 -98
-174 -67 -27 11 -46 28 -62 58 -13 23 -44 71 -70 107 -26 36 -57 83 -68 105
-11 22 -35 54 -52 70 -18 17 -43 54 -56 82 -13 29 -67 109 -120 179 -53 69
-113 154 -133 188 -52 90 -128 203 -176 261 -23 28 -53 70 -67 95 -15 25 -40
58 -57 75 -24 22 -39 54 -61 124 -41 130 -39 156 11 223 57 78 99 99 221 108
75 6 107 13 127 28 34 25 34 59 -2 86 l-28 21 -1504 0 -1503 0 -26 -24 c-55
-52 -19 -91 104 -116 103 -21 125 -32 214 -103 92 -73 111 -115 103 -228 -4
-66 -12 -98 -42 -165 -20 -46 -46 -122 -56 -169 -11 -47 -37 -121 -59 -165
-21 -44 -46 -109 -55 -145 -9 -36 -34 -103 -55 -150 -21 -47 -54 -139 -75
-205 -20 -66 -50 -156 -67 -200 -17 -44 -41 -120 -54 -169 -15 -54 -42 -119
-68 -165 -29 -49 -47 -94 -51 -126 -12 -88 -26 -128 -65 -182 -28 -40 -41 -70
-50 -121 -7 -42 -26 -93 -50 -137 -21 -38 -46 -99 -55 -135 -24 -91 -40 -127
-65 -140 -32 -17 -64 17 -84 90 -9 32 -28 75 -43 96 -37 54 -59 109 -73 179
-7 33 -29 94 -50 135 -21 41 -54 129 -75 195 -20 66 -53 158 -72 205 -19 47
-51 129 -69 182 -19 54 -47 124 -63 155 -16 32 -37 87 -46 123 -9 36 -34 92
-55 125 -27 42 -44 83 -55 135 -11 52 -25 86 -45 112 -41 51 -57 91 -71 176
-6 40 -22 94 -36 120 -48 89 -124 331 -130 412 -7 94 4 118 85 189 74 63 115
81 189 81 148 0 218 62 131 115 -32 19 -55 20 -835 20 -799 0 -802 0 -830 -21
-15 -12 -29 -30 -31 -41 -4 -29 40 -61 96 -68 91 -12 142 -27 179 -54 21 -15
61 -40 88 -55 94 -54 125 -95 180 -242 14 -37 34 -81 44 -98 11 -17 29 -65 41
-106 12 -41 37 -104 56 -138 19 -35 43 -102 54 -148 11 -47 31 -102 45 -122
34 -49 58 -134 50 -173 -4 -17 -21 -53 -37 -79 -17 -27 -39 -85 -49 -130 -11
-45 -36 -113 -58 -153 -22 -40 -49 -106 -61 -147 -12 -41 -31 -92 -42 -113
-10 -21 -48 -127 -85 -235 -36 -108 -74 -214 -84 -234 -11 -20 -28 -77 -39
-125 -14 -59 -34 -110 -60 -153 -22 -36 -49 -92 -60 -124 -23 -68 -36 -86 -60
-86 -29 0 -50 34 -85 144 -19 58 -46 128 -60 155 -13 27 -33 80 -44 119 -10
38 -37 102 -59 143 -22 41 -47 105 -56 144 -10 38 -37 105 -60 150 -24 44 -51
111 -60 149 -10 39 -33 97 -51 131 -19 33 -46 104 -60 158 -14 53 -46 141 -69
195 -24 54 -57 141 -74 192 -16 52 -43 122 -59 155 -17 33 -38 94 -48 135 -17
73 -33 108 -77 178 -11 18 -31 72 -43 120 -13 48 -30 105 -39 127 -31 83 -18
136 52 208 57 59 93 78 199 107 119 32 145 72 73 114 -34 21 -49 21 -730 23
-392 1 -705 -2 -717 -7z"/>
<path d="M34615 5158 c-62 -22 -82 -60 -47 -91 10 -9 62 -28 116 -42 54 -14
119 -38 145 -53 25 -15 68 -36 96 -47 61 -25 101 -78 136 -186 l24 -74 0
-1610 0 -1610 -27 -78 c-34 -102 -63 -142 -118 -169 -25 -11 -70 -36 -100 -54
-36 -22 -87 -40 -149 -53 -52 -12 -105 -28 -118 -36 -47 -31 -20 -75 57 -95
32 -7 283 -10 850 -8 777 3 806 4 837 22 79 48 37 96 -108 122 -74 13 -151 42
-163 63 -3 4 -33 19 -67 31 -104 39 -133 83 -170 255 -13 60 -24 1086 -14
1254 7 107 9 117 34 142 31 31 98 45 158 34 41 -7 156 -111 196 -175 12 -19
69 -91 126 -160 58 -69 134 -160 170 -204 36 -43 91 -106 122 -140 31 -33 66
-79 77 -101 11 -22 30 -49 42 -60 12 -11 36 -40 53 -65 17 -25 52 -70 79 -100
26 -30 93 -109 149 -175 56 -66 105 -122 109 -125 4 -3 20 -25 35 -50 15 -25
47 -66 70 -91 24 -25 50 -59 58 -75 8 -16 25 -38 37 -49 13 -11 40 -44 62 -73
21 -29 58 -74 81 -101 23 -27 57 -68 76 -91 19 -24 55 -52 80 -64 45 -20 58
-21 511 -21 493 0 527 3 551 47 16 30 -21 61 -106 88 -38 12 -86 34 -106 50
-20 16 -66 42 -104 59 -55 25 -84 48 -152 120 -46 49 -98 109 -115 133 -51 72
-167 203 -284 321 -28 29 -63 75 -77 103 -14 27 -33 57 -42 64 -10 8 -35 41
-57 73 -22 33 -62 85 -89 116 -27 31 -77 89 -112 129 -34 40 -80 94 -103 120
-22 26 -54 67 -71 92 -17 25 -43 56 -58 70 -15 14 -35 41 -45 60 -11 19 -49
69 -85 110 -87 98 -145 186 -145 221 0 44 37 64 162 88 79 15 137 33 193 60
44 21 101 46 126 55 25 9 64 31 85 49 21 18 58 45 81 60 23 15 50 38 59 52 9
14 36 37 60 51 24 14 53 43 67 67 14 23 36 52 50 65 14 13 56 85 93 160 l69
137 0 271 0 271 -42 84 c-23 46 -52 110 -63 141 -13 35 -40 79 -69 110 -27 29
-56 67 -65 85 -9 18 -35 46 -59 62 -23 16 -58 46 -77 66 -19 21 -65 52 -101
70 -37 18 -87 44 -111 59 -25 14 -86 35 -136 46 -50 10 -117 32 -149 49 -86
44 -167 61 -341 71 -224 13 -2099 11 -2137 -2z m1891 -301 c45 -15 117 -33
161 -41 86 -15 122 -30 194 -81 26 -18 61 -41 79 -50 18 -9 54 -38 80 -63 26
-26 61 -58 78 -73 19 -16 34 -41 41 -70 6 -24 27 -83 46 -130 73 -184 74 -405
3 -573 -17 -39 -37 -92 -45 -118 -25 -84 -212 -273 -295 -297 -24 -7 -68 -28
-98 -46 -55 -32 -92 -43 -314 -90 -123 -26 -439 -52 -524 -42 -49 5 -87 35
-108 84 -11 26 -14 162 -14 735 0 460 4 716 11 741 19 69 78 117 174 141 11 2
117 3 235 2 203 -2 219 -4 296 -29z"/>
</g>
</svg>
