<svg xmlns="http://www.w3.org/2000/svg" viewBox="0 0 212 64" role="img" aria-label="Alberta Accident Law">
  <g transform="translate(32,32)">
    <!-- outer petals (5, wild-rose) -->
    <g fill="#c9a040">
      <path d="M0,0 C -11,-9 -10,-24 0,-28 C 10,-24 11,-9 0,0 Z"/>
      <path d="M0,0 C -11,-9 -10,-24 0,-28 C 10,-24 11,-9 0,0 Z" transform="rotate(72)"/>
      <path d="M0,0 C -11,-9 -10,-24 0,-28 C 10,-24 11,-9 0,0 Z" transform="rotate(144)"/>
      <path d="M0,0 C -11,-9 -10,-24 0,-28 C 10,-24 11,-9 0,0 Z" transform="rotate(216)"/>
      <path d="M0,0 C -11,-9 -10,-24 0,-28 C 10,-24 11,-9 0,0 Z" transform="rotate(288)"/>
    </g>
    <!-- inner petals (offset, lighter) -->
    <g fill="#dcb863">
      <path d="M0,0 C -7,-6 -6,-15 0,-18 C 6,-15 7,-6 0,0 Z" transform="rotate(36)"/>
      <path d="M0,0 C -7,-6 -6,-15 0,-18 C 6,-15 7,-6 0,0 Z" transform="rotate(108)"/>
      <path d="M0,0 C -7,-6 -6,-15 0,-18 C 6,-15 7,-6 0,0 Z" transform="rotate(180)"/>
      <path d="M0,0 C -7,-6 -6,-15 0,-18 C 6,-15 7,-6 0,0 Z" transform="rotate(252)"/>
      <path d="M0,0 C -7,-6 -6,-15 0,-18 C 6,-15 7,-6 0,0 Z" transform="rotate(324)"/>
    </g>
    <!-- yellow center + stamens -->
    <circle r="7.5" fill="#f4dd92"/>
    <g fill="#9c7a1c">
      <circle cx="0" cy="-3.5" r="1.3"/><circle cx="3.3" cy="-1" r="1.3"/><circle cx="-3.3" cy="-1" r="1.3"/>
      <circle cx="2" cy="3" r="1.3"/><circle cx="-2" cy="3" r="1.3"/><circle cx="0" cy="0" r="1.3"/>
    </g>
  </g>
  <text x="70" y="30" font-family="Georgia, 'Times New Roman', serif" font-weight="700" font-size="25" fill="#c9a040">Alberta</text>
  <text x="72" y="49" font-family="Georgia, 'Times New Roman', serif" font-weight="600" font-size="12" letter-spacing="3" fill="#ffffff">ACCIDENT LAW</text>
</svg>
